<?xml version="1.0" encoding="UTF-8"?>
<svg id="_Слой_2" data-name="Слой 2" xmlns="http://www.w3.org/2000/svg" viewBox="0 0 4062.17 949.46">
  <defs>
    <style>
      .cls-1 {
        stroke-width: 0px;
      }
    </style>
  </defs>
  <g id="_Слой_1-2" data-name="Слой 1">
    <g>
      <path fill="white" class="cls-1" d="m2139.12,720.8c2.8-5.73,5.15-11.73,8.48-17.13,18.82-30.59,26.18-64.68,29.88-99.66,5.08-48.05.08-95.57-9.81-142.66-10.44-49.7-27.6-97.39-44.45-145.11-9.09-25.76-19.17-51.25-30.39-76.15-22.14-49.07-44.94-97.86-68.35-146.34-12.39-25.67-26.63-50.45-40-75.65-.68-1.28-.97-2.77.13-5.11,2.53,3.21,5.33,6.25,7.55,9.67,18.85,29,37.5,58.12,56.38,87.1,22.39,34.37,44.91,68.64,67.42,102.93,22.06,33.6,44.18,67.16,66.26,100.75,22.07,33.58,44.09,67.21,66.22,100.75,6.19,9.39,12.36,18.82,19.16,27.77,15.03,19.77,32.71,36.3,56.24,45.93,22.87,9.36,45.12,6.65,66.73-3.01,19.71-8.81,35.8-22.8,50.65-38.41,36-37.87,64.98-80.68,90-126.32,6.18-11.27,12.24-22.6,18.98-35.07,502.77,33.5,1006.15,67.05,1511.97,100.75-18.35,0-34.25.41-50.13-.08-37.4-1.17-74.77-2.95-112.17-4.15-82.01-2.64-164.02-5.45-246.04-7.45-55.07-1.34-110.16-1.77-165.25-1.93-57.04-.17-114.1-.24-171.12,1-43.43.95-86.83,3.69-130.21,6.24-36.14,2.12-72.31,4.36-108.33,7.92-42.79,4.23-85.56,9.13-128.11,15.26-36.15,5.21-72.32,11.15-107.89,19.36-39.5,9.12-78.63,20.2-117.35,32.26-29.87,9.3-58.99,21.09-88.16,32.48-13.43,5.24-26.05,12.54-39.33,18.21-8.07,3.44-16.56,6.33-25.14,8.11-47.67,9.88-94.62,22.13-140.41,38.89-33.25,12.17-65.93,25.65-97.36,41.84-24.61,12.68-48.72,26.44-72.38,40.82-21.96,13.34-43.45,27.56-64.39,42.47-19.91,14.17-38.84,29.72-58.2,44.66l-1.08-.91Z"/>
      <path fill="white"  class="cls-1" d="m2057.94,708c-10.26-15.75-20.49-31.51-30.77-47.24-23.09-35.34-46.16-70.7-69.32-106-19.85-30.26-39.87-60.4-59.72-90.66-24.49-37.33-48.78-74.78-73.36-112.05-14.38-21.81-29.61-43.08-43.58-65.14-12.12-19.14-28.33-34.01-46.44-46.79-23.88-16.85-49.9-18.88-76.82-7.57-15.72,6.6-29.84,15.76-42.37,27.39-31.77,29.47-58.85,62.69-80.64,100.2-14.3,24.62-28.93,49.04-43.93,74.43-24.99-1.57-51.04-3.15-77.08-4.85-17.26-1.13-34.51-2.5-51.77-3.65-58.21-3.89-116.42-7.75-174.64-11.57-67.45-4.42-134.92-8.7-202.37-13.2-68.65-4.58-137.28-9.39-205.92-14.04-57.81-3.91-115.62-7.77-173.43-11.59-66.65-4.4-133.31-8.69-199.97-13.12-57.41-3.82-114.81-7.75-172.22-11.64-55.39-3.76-110.79-7.58-166.18-11.3-22.46-1.51-44.93-2.81-67.41-5.19,14.3,0,28.62-.42,42.9.08,42.61,1.49,85.2,3.56,127.82,4.99,73.17,2.46,146.34,5.33,219.53,6.69,77.18,1.43,154.4,2.11,231.59,1.57,66.75-.47,133.51-2.51,200.22-5.02,42.6-1.6,85.2-4.49,127.66-8.33,46.39-4.2,92.78-9.01,138.87-15.65,52.91-7.62,105.31-18.22,157.14-31.7,40.89-10.64,81.25-22.8,120.56-38.12,26.91-10.49,52.77-23.63,79.52-34.54,12.16-4.96,25.27-7.71,38.09-10.89,20.66-5.13,41.76-8.71,62.08-14.9,31.09-9.47,62.03-19.68,92.39-31.25,39.08-14.89,76.93-32.65,112.74-54.48,13.71-8.36,28.15-15.59,41.51-24.46,19.41-12.89,38.27-26.61,57.11-40.34,17.42-12.69,34.51-25.84,52.98-38.05-3.52,7.03-6.14,14.73-10.77,20.94-7.95,10.66-11.36,23.12-15.24,35.21-7.75,24.18-11.67,49.17-12.96,74.6-3.05,59.69,6.18,117.87,22.43,174.94,8.9,31.26,19.82,62,31,92.55,10.22,27.91,21.65,55.39,33.24,82.77,10.33,24.41,20.97,48.74,32.58,72.56,21.99,45.15,44.72,89.94,67.27,134.82,3.01,6,6.75,11.63,10.15,17.44-.83.72-1.66,1.44-2.48,2.17Z"/>
      <path fill="white" class="cls-1" d="m1281.07,808.06h97.12c11.08,31.61,22.18,63.26,33.56,95.71,5.89-3.47,11.17-6.24,16.11-9.53,39.83-26.54,79.66-53.08,119.31-79.89,6.6-4.46,13.13-6.85,21.24-6.75,29.36.37,58.72.14,89.88.14-3.07,5.18-5.45,9.1-7.73,13.07-17.02,29.63-33.98,59.31-51.07,88.9-6.63,11.48-13.61,22.75-20.27,34.21-2,3.43-4.39,5.41-8.59,5.37-20.93-.21-41.85-.25-62.78-.42-.64,0-1.27-.82-3.01-2.02,14.36-24.75,28.77-49.61,44.74-77.14-4.63,1.94-6.7,2.44-8.36,3.55-35.52,23.58-70.93,47.32-106.57,70.71-4.13,2.71-9.45,4.96-14.26,5.07-23.34.51-46.7.23-70.06.17-1.56,0-3.12-.4-5.37-.7-8.82-25.19-17.67-50.44-27.29-77.88-3.41,5.74-5.45,9.13-7.44,12.55-11.53,19.8-23.07,39.59-34.53,59.43-2.08,3.6-4.01,6.75-8.99,6.7-20.93-.23-41.86-.22-62.79-.36-.65,0-1.3-.78-3.42-2.12,26.7-45.98,53.44-92.04,80.58-138.76Z"/>
      <path fill="white"  class="cls-1" d="m2632.22,807.75h12.66c71.66,0,143.33-.07,214.99.1,7.58.02,15.31.7,22.72,2.24,23.37,4.86,35.18,23.36,30.07,46.71-3.63,16.58-12.1,30.8-23.87,42.67-23.11,23.3-50.22,40.11-82.76,46.83-8.61,1.78-17.53,2.83-26.32,2.85-72.47.23-144.94.14-217.4.1-3.47,0-6.94-.47-11.73-.81,27.46-47.32,54.21-93.42,81.64-140.69Zm21.5,89.15c2.65,1.2,3.34,1.78,4.04,1.79,46.22.08,92.44.33,138.65-.03,11.53-.09,22-4.8,30.14-13.27,5.39-5.6,10.33-12.25,6.83-20.44-3.3-7.73-11.17-6.59-17.94-6.59-43.81-.04-87.62-.03-131.43,0-2.79,0-5.58.26-9.02.43-6.94,12.44-13.93,24.95-21.28,38.12Z"/>
      <path fill="white"  class="cls-1" d="m2217.67,948.36c-5.94.43-9.38.88-12.82.89-22.94.06-45.89-.26-68.82.2-7.42.15-13.31-1.92-18.54-6.79-1.77-1.65-3.86-3.05-5.26-4.96-10.58-14.45-24.86-17.81-42.11-16.67-19.64,1.3-39.43.56-59.14.15-6.45-.13-10.13,1.81-13.36,7.55-13.73,24.44-6.59,20.15-36.07,20.53-12.48.16-24.96.08-37.43-.01-3.08-.02-6.15-.51-10.76-.92,27.68-47.62,54.63-93.98,81.69-140.54h12.73c74.86,0,149.73-.07,224.59.11,7.57.02,15.33.75,22.68,2.5,13.36,3.18,21.05,13.51,20.93,27.33-.17,19-9.89,33.49-22.85,46.27-16.97,16.74-36.97,28.22-59.95,34.55-1.03.28-1.95.96-4.03,2.01,9.25,9.01,18.04,17.58,28.54,27.81Zm-186.97-75.81c3.99.22,5.98.43,7.98.43,45.79.02,91.58.03,137.37-.02,3.19,0,6.54.03,9.55-.85,6.57-1.92,11.12-5.81,10.97-13.29-8.85-3.34-128.74-4.64-157.18-1.89-2.47,4.44-5.13,9.23-8.68,15.61Z"/>
      <path fill="white"  class="cls-1" d="m1594.54,948.61c28.12-48.35,54.98-94.51,81.79-140.59h298.73c-3.64,6.83-6.66,12.65-9.81,18.39-3.1,5.63-6.34,11.19-9.96,17.58h-12.97c-65.66,0-131.32.35-196.98-.3-12.83-.13-21.54,2.63-25.55,17.01h224.99c-7.55,13.51-13.94,24.93-20.39,36.46h-13.94c-66.47,0-132.93.2-199.39-.21-10.69-.07-18.14,2.01-19.95,15.34,3.79.19,7.91.58,12.04.58,64.85.04,129.71.03,194.56.03h16.59c-7.05,12.57-12.72,23.06-18.86,33.27-.99,1.64-3.92,2.46-6.1,2.94-2.31.51-4.81.17-7.23.17-91.04,0-182.07,0-273.11-.02-3.92,0-7.84-.34-14.45-.65Z"/>
      <path fill="white"  class="cls-1" d="m2582.93,860.78c-7.51,13.43-13.89,24.84-20.34,36.38h-13.93c-66.45,0-132.9.24-199.35-.24-10.84-.08-17.92,2.33-20.2,14.06,3.43,3.42,8.08,1.83,12.16,1.84,64.84.12,129.68.09,194.51.09,4.72,0,9.44,0,16.69,0-6.98,12.47-12.66,22.95-18.77,33.16-.99,1.66-3.87,2.62-6.04,3.04-2.72.53-5.61.18-8.43.18-90.61,0-181.22,0-271.84,0h-12.04c1.96-8.15,67.9-124.31,79.63-140.94h298.46c-6.88,12.36-13.07,23.48-19.85,35.64h-12.75c-66.85,0-133.7,0-200.56,0q-15.01,0-21.32,16.79h223.94Z"/>
    </g>
  </g>
</svg>