<?xml version="1.0" encoding="UTF-8"?>
<svg id="_Слой_2" data-name="Слой 2" xmlns="http://www.w3.org/2000/svg" viewBox="0 0 384 384">
  <defs>
    <style>
      .cls-1, .cls-2 {
        stroke-width: 0px;
      }

      .cls-2 {
        fill: #fff;
      }
    </style>
  </defs>
  <g id="_Слой_1-2" data-name="Слой 1">
    <path class="cls-2" d="m0,0c128,0,256,0,384,0,0,128,0,256,0,384-128,0-256,0-384,0C0,256,0,128,0,0Zm191.57,279.64c1.15.86,1.96,1.43,2.73,2.05,17.73,14.18,35.45,28.36,53.17,42.54,18.6,14.88,37.17,29.79,55.81,44.62,6.22,4.95,14.17,4.1,17.88-2.22,1.48-2.52,2.12-5.88,2.12-8.86.1-110.27.09-220.54.09-330.81,0-9.71-4.49-14.24-14.13-14.24-78.21,0-156.42,0-234.64,0-10.49,0-14.72,4.23-14.72,14.75,0,109.9,0,219.79,0,329.69,0,1.25-.05,2.5.05,3.74.73,8.9,10.32,13.92,18,9.41,1.39-.82,2.64-1.88,3.9-2.89,22.79-18.22,45.57-36.46,68.36-54.69,13.72-10.98,27.44-21.95,41.37-33.09Z"/>
    <path class="cls-1" d="m191.57,279.64c-13.93,11.14-27.65,22.11-41.37,33.09-22.79,18.23-45.57,36.46-68.36,54.69-1.26,1.01-2.51,2.08-3.9,2.89-7.69,4.51-17.28-.51-18-9.41-.1-1.24-.05-2.49-.05-3.74,0-109.9,0-219.79,0-329.69,0-10.51,4.23-14.75,14.72-14.75,78.21,0,156.42,0,234.64,0,9.63,0,14.13,4.52,14.13,14.24,0,110.27.02,220.54-.09,330.81,0,2.98-.65,6.34-2.12,8.86-3.71,6.32-11.65,7.17-17.88,2.22-18.64-14.83-37.21-29.74-55.81-44.62-17.72-14.18-35.44-28.36-53.17-42.54-.77-.62-1.59-1.19-2.73-2.05Z"/>
  </g>
</svg>