<?xml version="1.0" encoding="UTF-8"?>
<svg id="_Слой_1" data-name="Слой 1" xmlns="http://www.w3.org/2000/svg" viewBox="0 0 410.4 410.4">
  <defs>
    <style>
      .cls-1 {
        stroke-width: 0px;
      }
    </style>
  </defs>
  <path class="cls-1" d="m217.97,410.4h-23.95c-6.84-.86-13.72-1.48-20.51-2.61-42.69-7.14-79.89-25.5-110.51-56.09C17.08,305.8-3.13,250.03,2.74,185.44c3.94-43.35,20.91-81.67,49.9-114.23C91.14,27.98,139.59,4.68,197.41,1.87c40.32-1.96,78.23,7.44,112.74,28.49,53.05,32.36,85.61,79.23,97.07,140.47,1.43,7.66,2.14,15.46,3.18,23.2v23.95c-.33,2.87-.66,5.74-.98,8.62-4.89,43.98-21.69,82.78-51.34,115.68-31.48,34.93-70.48,56.73-116.88,64.95-7.69,1.36-15.48,2.13-23.23,3.18Zm15.36-204.89c-1.73,1.8-2.7,2.86-3.72,3.89-22.48,22.48-44.96,44.96-67.43,67.45-1.22,1.22-2.43,2.47-3.5,3.82-6.71,8.48-4.14,20.49,5.43,25.53,7.14,3.76,14.62,2.26,21.3-4.42,27.11-27.07,54.2-54.16,81.29-81.25,9.97-9.97,10-19.05.09-28.95-26.81-26.81-53.62-53.61-80.44-80.4-1.22-1.22-2.47-2.43-3.81-3.51-9.61-7.66-23.51-3.25-26.89,8.54-2.12,7.39.68,13.16,5.84,18.31,22.61,22.54,45.16,45.14,67.75,67.69,1.12,1.12,2.48,2.01,4.09,3.31Z"/>
</svg>