<?xml version="1.0" encoding="UTF-8"?>
<svg id="_Слой_1" data-name="Слой 1" xmlns="http://www.w3.org/2000/svg" viewBox="0 0 409.98 410.78">
  <defs>
    <style>
      .cls-1 {
        stroke-width: 0px;
      }
    </style>
  </defs>
  <path class="cls-1" d="m218.18,410.78h-23.98c-1.29-.24-2.59-.5-3.88-.72-12.69-2.18-25.69-3.26-38.03-6.7C53.78,375.88-8.28,283.57,3.15,181.98c5.13-45.63,23.82-85.62,55.81-117.91C114.75,7.75,182.73-11.21,259.28,9.2c98.79,26.35,160.64,119.56,149.11,221.21-6.12,53.99-31.48,98.12-72.13,133.31-27.3,23.64-59.51,37.92-95.21,43.93-7.58,1.28-15.25,2.1-22.87,3.12Zm-12.39-176.95c-1.4-1.83-2.24-3.22-3.36-4.34-22.28-22.33-44.59-44.64-66.91-66.93-1.41-1.41-2.83-2.85-4.42-4.03-4.16-3.09-8.83-4.25-13.94-2.98-6.32,1.57-10.55,5.49-12.45,11.72-2.18,7.16.29,13.01,5.37,18.08,27.58,27.57,55.13,55.18,82.74,82.73,8.5,8.48,18.22,8.51,26.68.04,7.03-7.04,13.73-14.41,20.75-21.46,19.99-20.1,40.07-40.12,60.11-60.18,1.13-1.13,2.26-2.27,3.26-3.5,8.15-10,3.37-24.35-9.17-27.41-7.11-1.74-12.63,1.17-17.54,6.1-21.61,21.69-43.29,43.3-64.91,64.98-1.93,1.94-3.6,4.14-6.22,7.18Z"/>
</svg>