<?xml version="1.0" encoding="UTF-8"?>
<svg id="_Слой_1" data-name="Слой 1" xmlns="http://www.w3.org/2000/svg" viewBox="0 0 500 501">
  <defs>
    <style>
      .cls-1 {
        stroke-width: 0px;
      }
    </style>
  </defs>
  <path class="cls-1" d="m43,501c-9.4-3.82-11.84-10.9-11.35-20.68,3.21-63.69,30.86-114.16,82.08-151.56,25.28-18.46,53.88-29.49,85.15-32.82,30.71-3.27,61.52-2.48,92.29-1.03,40.38,1.89,76.21,16.23,107.43,41.66,39.24,31.96,62.36,73.37,69.94,123.36,1.24,8.2,1.44,16.57,1.9,24.88.46,8.31-4.41,13.07-11.44,16.2H43Z"/>
  <path class="cls-1" d="m257,1c8.16,1.32,16.44,2.14,24.47,4.04,50.92,12.06,90.52,54.49,99.27,106.01,14.08,82.87-53.66,158.25-137.49,152.99-61.17-3.83-111.56-48.99-121.98-109.3C109.25,85.09,156.16,17.37,225.86,3.91c6.65-1.28,13.43-1.95,20.14-2.91,3.67,0,7.33,0,11,0Z"/>
</svg>