<?xml version="1.0" encoding="UTF-8"?>
<svg id="_Слой_1" data-name="Слой 1" xmlns="http://www.w3.org/2000/svg" viewBox="0 0 501 500">
  <defs>
    <style>
      .cls-1 {
        stroke-width: 0px;
      }
    </style>
  </defs>
  <path class="cls-1" d="m501,366c-4.33,9.5-12.05,12.14-21.93,11.73-11.65-.48-23.33.02-34.99-.19-3.38-.06-4.87.99-6.08,4.23-9.03,24.13-26.39,38.89-51.92,41.86-26.13,3.04-46.83-7.42-61.09-29.73-2.48-3.88-4.21-8.3-5.86-12.63-.96-2.53-2.05-3.71-4.94-3.7-28.83.1-57.67.13-86.5-.04-3.47-.02-4.01,1.94-4.93,4.33-8.76,22.79-24.91,37-49.09,41.4-29.62,5.39-59.41-12.01-69.37-40.64-1.44-4.15-3.37-5.18-7.39-5.09-11.33.24-22.67.21-34,.04-9.46-.13-16.06-5.62-16.97-13.67-1.12-9.99,5.71-17.56,16.32-17.72,11.66-.17,23.33-.12,35,0,3.36.04,5.15-.64,6.38-4.38,8.64-26.24,32.57-43.5,59.68-43.49,27.02,0,51.04,17.38,59.64,43.51,1.19,3.63,2.91,4.4,6.36,4.38,27.83-.12,55.67-.14,83.5.02,3.63.02,5.14-1.09,6.21-4.56,7.86-25.4,32.11-43.02,59.26-43.34,26.21-.31,51.06,16.93,59.39,41.77,1.62,4.83,3.63,6.5,8.67,6.17,7.45-.48,14.96-.12,22.93-.12.13-1.96.32-3.56.32-5.16.02-24,.08-48-.1-72-.02-2.44-.98-5.25-2.43-7.23-5.7-7.8-11.9-15.23-17.63-23.01-2.14-2.9-4.5-3.8-7.99-3.79-38,.11-76,.07-114,.06-13.53,0-19.13-5.58-19.13-19.12-.02-33.5,0-67,0-100.5,0-1.94,0-3.88,0-6.4-2.79,0-4.91,0-7.03,0-78,0-156,0-234,0-2.33,0-4.67.07-7-.09-8.36-.56-14.5-7.2-14.46-15.55.04-8.36,6.17-14.87,14.58-15.44,1.49-.1,3-.1,4.5-.1,85,0,170-.03,255,.06,3.74,0,7.8.33,11.16,1.78,6.33,2.71,8.63,8.44,8.77,15.07.1,4.63.02,9.26.02,14.5,2.29,0,4.06,0,5.83,0,19.33,0,38.67.14,58-.06,9.01-.09,14.97,3.59,19,11.74,13.79,27.92,27.21,56.06,42.2,83.34,7.54,13.73,18.19,25.75,27.35,38.6,3.06,4.29,5.86,8.77,8.78,13.16v110Zm-72.21-162.38c-1.12-2.42-1.84-4.08-2.65-5.69-8.9-17.7-17.91-35.35-26.64-53.13-1.59-3.23-3.5-4.15-6.91-4.12-16,.16-32,.06-48,.08-1.45,0-2.89.19-4.4.29v62.57h88.58Zm-50.09,126.25c-17.25-.08-31.63,14.18-31.65,31.38-.03,17.09,14.25,31.47,31.5,31.72,16.88.25,31.46-14.34,31.54-31.55.08-17.35-13.97-31.47-31.38-31.55Zm-246.78,31.27c-.05,17.4,14.02,31.74,31.19,31.83,17.06.08,31.56-14.26,31.8-31.46.24-17.07-14.06-31.47-31.4-31.65-17.34-.17-31.54,13.89-31.59,31.28Z"/>
  <path class="cls-1" d="m1,216c4.09-9.37,11.51-11.95,21.3-11.88,41.99.3,83.99.16,125.98.08,7.84-.01,14.18,2.32,17.44,9.92,3.77,8.79-1.53,18.89-10.95,20.97-2.57.57-5.29.59-7.94.59-41.66.03-83.33-.15-124.99.15-9.68.07-16.81-2.74-20.84-11.84v-8Z"/>
  <path class="cls-1" d="m109.7,173.77c-21.97,0-43.95.09-65.92-.04-11.64-.07-19.19-9.32-16.35-19.74,1.69-6.2,5.91-9.9,12.14-11.22,1.93-.41,3.97-.4,5.96-.4,42.78-.02,85.56-.1,128.35.12,4.11.02,8.7,1.15,12.2,3.23,5.67,3.37,7.42,9.27,6.05,15.69-1.33,6.24-5.31,10.28-11.57,11.74-2.24.52-4.62.59-6.93.59-21.31.04-42.62.02-63.92.02Z"/>
  <path class="cls-1" d="m78.51,297.75c-11.82,0-23.64.23-35.46-.07-12.44-.32-19.84-12.15-14.46-22.76,3.33-6.57,9.18-8.66,16.2-8.64,21.31.06,42.62.02,63.92.02,1.66,0,3.33-.03,4.99.01,10.12.3,17.06,6.79,16.94,15.83-.12,9.15-6.94,15.47-17.18,15.59-11.65.14-23.31.03-34.96.02Z"/>
</svg>