<?xml version="1.0" encoding="UTF-8"?>
<svg id="_Слой_1" data-name="Слой 1" xmlns="http://www.w3.org/2000/svg" viewBox="0 0 500 500">
  <defs>
    <style>
      .cls-1 {
        stroke-width: 0px;
      }
    </style>
  </defs>
  <path class="cls-1" d="m250.68,485.27c-50.82,0-101.64-.1-152.46.04-27.71.08-50.3-10.12-66.81-32.58-9.85-13.41-14.54-28.63-14.52-45.35.07-54.98.03-109.97.02-164.95,0-49.14.03-98.29-.07-147.43-.09-42.99,33.99-78.07,77-78.17,104.64-.23,209.28-.23,313.91,0,43.02.09,77.31,34.34,77.41,77.28.23,104.47.08,208.94.08,313.41,0,41.58-33.75,78.43-81.12,77.89-51.15-.59-102.3-.13-153.46-.13Zm203.25-250.03c.08-1.66.2-3.12.2-4.58.01-44.65.02-89.29,0-133.94,0-2.99-.07-6.02-.56-8.96-4.02-24.25-22.91-39.82-48.61-39.88-41.15-.09-82.29-.02-123.44-.02-4.8,0-9.61,0-14.66,0v187.38h187.08Zm-218.54,218.84v-187.28H47.92c0,1.95,0,3.43,0,4.92,0,44.48-.01,88.96,0,133.44.01,29,19.95,48.91,48.99,48.92,44.15.02,88.3,0,132.44,0,1.82,0,3.63,0,6.03,0Zm-.04-405.88c-1.34-.13-1.99-.25-2.65-.25-45.98-.02-91.96-.3-137.94.05-27.3.2-46.8,20.63-46.83,48.01-.06,44.81-.06,89.63-.07,134.44,0,1.59.2,3.18.3,4.73h187.19V48.19Zm31.32,405.68c1.36.1,2.03.2,2.69.2,46.47,0,92.95.03,139.42-.09,3.77-.01,7.66-.68,11.29-1.73,21.25-6.16,34.01-23.81,34.06-47.28.09-44.47.03-88.95.02-133.42,0-1.48,0-2.95,0-4.71h-187.47v187.03Z"/>
  <path class="cls-1" d="m360.34,157.03c-15.15,0-30.29.03-45.44,0-9.96-.03-16.75-6.16-16.88-15.11-.13-9.21,6.77-15.87,16.72-15.89,30.62-.05,61.25-.06,91.87.02,8.33.02,14.59,5.27,15.98,12.98,1.27,7.02-2.7,14.35-9.49,16.87-2.27.84-4.87,1.08-7.32,1.09-15.15.09-30.29.05-45.44.05Z"/>
  <path class="cls-1" d="m163.09,360.32c7.69,7.52,14.67,14.19,21.48,21.03,7.04,7.07,7.45,16.86,1.17,23.14-6.38,6.37-15.98,5.94-23.1-1.12-6.84-6.79-13.62-13.65-20.83-20.88-2.59,2.5-4.96,4.73-7.28,7.02-5.09,5.04-10.02,10.25-15.26,15.13-6.38,5.94-15.75,5.79-21.67-.02-6.08-5.98-6.24-15.55-.09-22.02,5.97-6.27,12.21-12.29,18.31-18.44,1.15-1.16,2.23-2.38,3.71-3.96-7.27-7.25-14.3-14.3-21.39-21.3-4.55-4.49-6.22-9.82-4.51-15.96,3.11-11.21,17.04-14.97,25.68-6.72,7.45,7.12,14.43,14.74,22.05,22.59,7.72-7.78,14.79-15.02,22-22.13,5.02-4.96,12.07-6.22,17.94-3.47,9.74,4.56,11.91,17.04,4.27,25.2-3.53,3.77-7.24,7.37-10.93,10.97-3.57,3.48-7.22,6.86-11.55,10.96Z"/>
  <path class="cls-1" d="m126,126.01c0-10.39-.03-20.04,0-29.69.04-10.02,6.57-17.21,15.53-17.22,9.06,0,15.51,7.04,15.57,17.16.06,9.65.01,19.3.01,29.74,3.01,0,5.76,0,8.51,0,7.66,0,15.33-.14,22.99.06,8.81.22,15.48,7.22,15.38,15.77-.1,8.44-6.6,15.01-15.36,15.15-10.29.16-20.59.04-31.51.04,0,5.43,0,10.36,0,15.3-.01,5.66.18,11.34-.13,16.99-.46,8.67-7.33,14.88-15.83,14.68-8.1-.19-14.86-6.7-15.09-15.02-.24-8.82-.06-17.66-.09-26.49,0-1.62-.14-3.24-.24-5.47-10.74,0-21.19.24-31.63-.07-11.05-.33-18.04-11.41-13.66-21.39,2.83-6.44,8.04-9.54,15.07-9.54,9.96,0,19.93,0,30.48,0Z"/>
  <path class="cls-1" d="m360.53,313.52c14.31,0,28.63-.06,42.94.05,3.12.03,6.39.24,9.33,1.18,6.47,2.08,10.57,8.9,9.97,15.65-.62,6.93-5.59,12.56-12.4,13.8-2.28.42-4.63.59-6.94.6-28.96.04-57.91.01-86.87.04-5.7,0-10.95-1.05-14.83-5.67-3.86-4.6-4.8-9.81-2.74-15.41,1.99-5.42,5.91-8.77,11.65-9.72,2.28-.38,4.63-.49,6.95-.5,14.31-.04,28.63-.02,42.94-.02Z"/>
  <path class="cls-1" d="m360.26,407.04c-15.64,0-31.29.17-46.93-.06-8.87-.13-15.25-6.78-15.31-15.16-.06-8.46,6.29-15.66,14.81-15.72,31.62-.19,63.25-.18,94.87-.01,8.55.05,15.08,7.15,15.11,15.5.03,8.37-6.35,15.23-15.12,15.37-15.81.26-31.62.07-47.43.08Z"/>
</svg>