<?xml version="1.0" encoding="UTF-8"?>
<svg id="_Слой_1" data-name="Слой 1" xmlns="http://www.w3.org/2000/svg" viewBox="0 0 501 500">
  <defs>
    <style>
      .cls-1 {
        stroke-width: 0px;
      }
    </style>
  </defs>
  <path class="cls-1" d="m501,105v1c-.58.31-1.2.55-1.74.92-67.41,47.19-134.82,94.39-202.21,141.6-1.02.72-1.9,1.64-3.05,2.63,1.8,1.33,3.23,2.45,4.72,3.49,42.02,29.44,84.03,58.9,126.08,88.3,25.36,17.73,50.79,35.37,76.19,53.05v1c-.91.89-1.92,1.71-2.72,2.69-15.05,18.43-34.6,27.77-58.25,28.05-16.15.19-30.51-5.47-43.71-14.75-53.94-37.93-108.05-75.64-161.96-113.62-3.99-2.81-6.49-2.65-10.3.12-13.33,9.69-26.97,18.96-40.47,28.42-5.29,3.71-10.53,7.49-15.89,11.31.83,1.7,1.47,3.03,2.12,4.35,8.69,17.54,11.64,35.93,8.26,55.27-6.96,39.78-39.95,70.61-79.1,73.9-40.86,3.44-77.97-19.67-92.06-57.71-2.63-7.1-3.98-14.68-5.92-22.04,0-6,0-12,0-18,1.27-5.47,2.2-11.04,3.86-16.38,16.23-52.01,70.53-77.34,120.84-56.4,2.8,1.17,4.9,1.54,7.7-.45,22.54-16.02,45.23-31.82,67.87-47.71,1.3-.91,2.49-1.97,3.89-3.08-.87-.74-1.33-1.21-1.86-1.58-23.59-16.55-47.15-33.14-70.85-49.54-1.38-.95-3.98-.83-5.79-.36-8.18,2.11-16.15,5.36-24.44,6.68-37.6,5.96-76.68-15.02-92.23-49.81-4.15-9.27-6.05-19.55-8.99-29.37,0-6,0-12,0-18,.33-1.09.8-2.16.97-3.28C9.16,56.27,54.64,22.49,103.89,30.05c52.82,8.1,86.82,60.79,72.13,112.07-2.03,7.1-5.15,13.89-7.88,21.12,19.57,13.7,39.24,27.39,58.81,41.24,2.76,1.96,4.25.19,6.08-1.1,26.07-18.23,52.12-36.48,78.2-54.7,30.31-21.18,60.34-42.78,91.05-63.35,23.91-16.01,56.14-14.91,79.48,1.89,7.04,5.07,12.87,11.81,19.25,17.79ZM90.57,72.06c-25.32-.07-46.63,21.26-46.38,46.44.25,25.33,21,46.02,46.21,46.09,25.11.07,46.02-20.63,46.43-45.95.4-25.03-20.94-46.52-46.26-46.59Zm-.72,357.87c25.14.54,46.47-20.29,46.97-45.86.49-25.05-20.62-46.35-46.21-46.64-25-.28-45.81,20.29-46.41,45.88-.58,24.78,20.27,46.08,45.65,46.63Z"/>
</svg>