<?xml version="1.0" encoding="UTF-8"?>
<svg id="_Слой_1" data-name="Слой 1" xmlns="http://www.w3.org/2000/svg" viewBox="0 0 501 501">
  <defs>
    <style>
      .cls-1 {
        stroke-width: 0px;
      }
    </style>
  </defs>
  <path class="cls-1" d="m1,306c3.65-8.37,10.03-11.39,19.09-11.15,16.65.45,33.33.49,49.98.03,16.64-.46,30.33,4.88,40.94,18.53,1.28-.9,2.48-1.66,3.6-2.54,37.76-29.6,90.96-29.17,127.95,1.51,10.03,8.32,20.9,12.33,33.86,12.06,19.82-.41,39.65-.24,59.48-.36,21.33-.12,36.74,8.94,45.18,28.94.18.42.56.76,1.25,1.68,6.78-7.28,13.42-14.42,20.07-21.54,7.39-7.92,14.7-15.91,22.18-23.74,12.06-12.63,26.69-17.47,43.64-12.76,17.13,4.76,28.03,15.99,31.91,33.62.13.61.58,1.14.88,1.71v13c-2.98,6.79-4.88,14.37-9.13,20.24-23.03,31.83-46.58,63.28-70.06,94.78-10.99,14.74-25.05,25.95-42.15,32.57-9.83,3.81-20.41,5.67-30.65,8.4h-159c-4.43-.5-8.86-1.06-13.3-1.48-22.12-2.08-43.73-6.77-65.11-12.66-1.39-.38-3.67-.41-4.48.42-7.22,7.5-16.23,11.39-26.11,13.71H12c-5.03-2.3-8.74-5.92-11-11v-184Zm263.13,165.08c0,.25,0,.49,0,.74,24.99,0,49.99.07,74.98-.02,20.26-.07,37.87-7.09,52.21-21.41,5.15-5.14,9.49-11.15,13.86-17.01,20.82-27.89,41.64-55.79,62.14-83.92,2.45-3.37,4.06-8.16,4.08-12.3.02-5.88-3.89-10.17-9.61-12.14-6.39-2.2-11.74-.22-16.24,4.62-20.77,22.32-41.6,44.58-62.32,66.95-9.74,10.52-21.61,15.58-35.97,15.51-32.32-.15-64.65-.05-96.97-.05-5.33,0-10.67.13-15.99-.06-6.59-.24-11.63-4.4-13.45-10.74-1.68-5.89.44-12.64,5.87-15.64,3.04-1.67,6.9-2.55,10.4-2.57,32.82-.19,65.65-.11,98.47-.11,1.5,0,3,.06,4.5-.03,8.34-.49,14.49-6.89,14.39-14.93-.11-8.18-6.19-14.3-14.78-14.35-21.16-.13-42.32-.25-63.48,0-19.66.24-36.91-5.49-51.85-18.52-10.69-9.32-23.42-14.5-37.51-16.26-26.71-3.34-48.06,7.37-66.53,25.47-.91.89-1.37,2.64-1.37,3.99-.08,35.66-.1,71.31.06,106.97,0,1.38,1.63,3.62,2.92,3.99,21.32,6.23,43.01,11.02,65.23,11.65,25.63.73,51.3.17,76.95.17Zm-233.87.74c14.67,0,28.78.03,42.9-.01,10.74-.03,16.8-5.96,16.81-16.65.05-38.12.05-76.24,0-114.37-.01-10.71-6.07-16.63-16.78-16.67-12.98-.05-25.97-.07-38.95-.06-1.27,0-2.53.28-3.98.45v147.31Z"/>
  <path class="cls-1" d="m501,174c-1.99,10.43-3.24,21.07-6.1,31.26-31.51,112.11-166.98,155.34-256.88,81.22-47.8-39.41-67.12-91.63-56.28-152.58,10.85-60.97,47.45-102.27,105.55-123.7,11.87-4.38,24.89-5.66,37.37-8.37,1.12-.24,2.23-.56,3.34-.84,8,0,16,0,24,0,1.1.29,2.19.73,3.31.84,69.74,6.91,126.48,57.14,141.76,125.63,1.66,7.43,2.64,15.01,3.93,22.52v24Zm-29.19-11.88c0-72.42-59.28-131.8-131.7-131.93-72.7-.14-132.09,59.2-132.08,131.96.01,72.83,59.25,131.96,132.1,131.84,72.52-.12,131.7-59.37,131.69-131.87Z"/>
  <path class="cls-1" d="m354.47,191.63c.12-8.58-5.91-14.38-15.37-14.8-25.26-1.11-44.25-21.21-42.96-46.28.89-17.23,9.69-29.81,25.21-37.34,3.05-1.48,4.24-3.02,4.03-6.34-.27-4.31-.22-8.67,0-12.99.43-8.42,6.94-14.47,15-14.17,8.01.3,14.41,6.34,13.59,14.73-1.1,11.22,1.08,19.4,12.97,23.32,3.54,1.17,6.51,4.58,9.3,7.4,5.47,5.53,5.52,14.34.47,19.93-5.13,5.68-13.52,6.34-19.91,1.62-3.2-2.36-6.28-5.02-9.78-6.81-5.83-2.99-11.73-2.54-16.76,1.91-4.63,4.1-6.38,9.36-4.34,15.36,2.14,6.28,6.65,9.93,13.36,10.24,11.54.53,21.89,3.87,30.46,11.92,22.47,21.11,17.12,57.85-10.6,71.3-3.98,1.93-5.44,4.08-5.04,8.31.36,3.8.16,7.66.04,11.49-.26,7.99-6.1,13.89-13.91,14.19-7.43.28-14.16-5.63-14.76-13.39-.37-4.8-.25-9.66-.11-14.48.08-2.7-.77-4.18-3.41-5.23-9.01-3.58-16.32-9.58-22.65-16.81-5.88-6.71-5.65-15.26.52-20.98,6-5.57,14.44-4.71,21.04,1.28,4.35,3.94,9.15,7.98,14.5,10.1,9.38,3.72,18.97-3.57,19.11-13.49Z"/>
</svg>