<?xml version="1.0" encoding="UTF-8"?>
<svg id="_Слой_1" data-name="Слой 1" xmlns="http://www.w3.org/2000/svg" viewBox="0 0 500 501">
  <defs>
    <style>
      .cls-1 {
        stroke-width: 0px;
      }
    </style>
  </defs>
  <path class="cls-1" d="m232,501c-9.88-1.31-19.88-2.05-29.63-4-79.18-15.89-137.09-59.79-173.08-132.24-5.62-11.31-2.75-23.78,6.62-31.01,8.55-6.59,21.36-6.68,29.6.63,3.48,3.09,6.12,7.43,8.28,11.65,27.79,54.06,70.98,88.8,130.32,102.14,103.06,23.18,206.99-45.17,226.75-148.43,20.29-106.05-48.85-206.69-155.74-224.23-63.26-10.38-118.51,8.4-164.79,52.97-.96.92-1.85,1.92-2.72,2.93-.18.2-.14.59-.32,1.46,2,0,3.92.05,5.83,0,22.65-.67,45.3-1.45,67.95-1.98,9.64-.23,17.07,4.11,21.77,12.53,4.61,8.25,4.31,16.65-.62,24.68-4.74,7.72-12.03,11.37-20.9,11.67-22.97.77-45.96,1.36-68.93,2.06-19.48.59-38.95,1.3-58.43,1.85-19.46.55-30.16-9.73-30.73-29.16-1.2-40.62-2.46-81.25-3.73-121.87-.57-18.37,3.07-24.34,19.51-31.62h9c14.47,4.4,20.44,14.34,20.43,29.25-.02,18.31.98,36.63,1.48,54.95.12,4.42.02,8.85.02,13.28.91.54,1.81,1.08,2.72,1.62.84-1.63,1.32-3.63,2.56-4.84C133.69,38.28,203.49,15.28,284.06,28.12c62.68,9.99,113.62,41.33,151.22,92.36,45.91,62.3,59.82,132.19,38.09,206.37-27.37,93.39-91.07,149.72-186.25,170.14-9.55,2.05-19.4,2.71-29.11,4.01h-26Z"/>
</svg>